<svg xmlns="http://www.w3.org/2000/svg" viewBox="0 0 82.2 82.2">
    <circle cx="41.1" cy="41.1" r="39.7" fill="#5D3FD3"/>
    <path d="M27.5,3.8C11.3,9.7,0.3,25.7,1.5,43.7c2.7,8.8,13.4,11.1,13.4,11.1L70,34.7c0,0,6.6-8.7,3.1-17.1C62.4,3.1,43.7-2.1,27.5,3.8z" fill="#8A2BE2"/>
    <path d="M44.4,50.2c-6.9,2.5-13.5,4.1-19,4.8c-2.9-3.2-4.8-7.4-5.2-12c-0.1-0.8-0.1-1.6-0.1-2.3c-6.6,4.3-10.3,8.6-9.2,11.5C12,55,17.6,55.9,25.4,55c4.3,4.8,10.6,7.6,17.5,7C53.7,61,61.8,52.2,62,41.6C57.4,44.6,51.3,47.6,44.4,50.2z" fill="#E6E6FA"/>
    <path d="M71.3,30.1c-1.1-2.9-6.7-3.8-14.5-2.9c-4.3-4.8-10.6-7.6-17.5-7c-10.9,1-19.2,10.1-19.1,20.9c0,0.6,0,1.2,0.1,1.8c0,0,0,0,0,0c0.4,4.5,2.2,8.5,4.9,11.7c0.1,0.1,0.2,0.2,0.3,0.3l0,0c0,0,0,0,0,0l0,0c5.5-0.7,12.1-2.3,19-4.8c6.9-2.5,13-5.5,17.6-8.5l0,0l0,0C68.6,37.3,72.3,33.1,71.3,30.1z" fill="#FFFFFF"/>
</svg>